<svg width="33" height="32" viewBox="0 0 33 32" fill="none" xmlns="http://www.w3.org/2000/svg">
<path fill-rule="evenodd" clip-rule="evenodd" d="M12.92 10.112C16.76 5.17733 22.76 2 29.5 2C29.7652 2 30.0196 2.10536 30.2071 2.29289C30.3946 2.48043 30.5 2.73478 30.5 3C30.5 9.74133 27.3227 15.74 22.388 19.5813C22.5932 20.867 22.5171 22.1819 22.1648 23.4352C21.8125 24.6886 21.1925 25.8506 20.3475 26.8411C19.5026 27.8316 18.4528 28.6269 17.2706 29.1723C16.0884 29.7177 14.8019 30.0001 13.5 30C13.2348 30 12.9804 29.8946 12.7929 29.7071C12.6054 29.5196 12.5 29.2652 12.5 29V23.492C11.2039 22.4685 10.0323 21.2965 9.00933 20H3.5C3.23478 20 2.98043 19.8946 2.79289 19.7071C2.60536 19.5196 2.5 19.2652 2.5 19C2.49989 17.6979 2.78231 16.4114 3.32776 15.2291C3.87322 14.0467 4.66871 12.9969 5.65935 12.1519C6.64998 11.3069 7.81217 10.6869 9.0657 10.3347C10.3192 9.98256 11.6342 9.90656 12.92 10.112ZM20.5 9C19.7044 9 18.9413 9.31607 18.3787 9.87868C17.8161 10.4413 17.5 11.2044 17.5 12C17.5 12.7956 17.8161 13.5587 18.3787 14.1213C18.9413 14.6839 19.7044 15 20.5 15C21.2957 15 22.0587 14.6839 22.6213 14.1213C23.1839 13.5587 23.5 12.7956 23.5 12C23.5 11.2044 23.1839 10.4413 22.6213 9.87868C22.0587 9.31607 21.2957 9 20.5 9Z" fill="#5E44FF"/>
<path d="M7.51338 22.9893C7.6187 22.9108 7.70752 22.8123 7.77477 22.6994C7.84203 22.5866 7.88639 22.4616 7.90533 22.3316C7.92427 22.2016 7.91743 22.0691 7.88518 21.9418C7.85293 21.8144 7.79591 21.6946 7.71738 21.5893C7.63885 21.484 7.54035 21.3952 7.42749 21.3279C7.31463 21.2607 7.18963 21.2163 7.05963 21.1974C6.92963 21.1784 6.79717 21.1853 6.66981 21.2175C6.54246 21.2498 6.4227 21.3068 6.31738 21.3853C5.29457 22.1461 4.49926 23.1722 4.01749 24.3524C3.53572 25.5326 3.38584 26.8221 3.58405 28.0813C3.61628 28.2911 3.7144 28.4851 3.86421 28.6354C4.01402 28.7857 4.20775 28.8844 4.41738 28.9173C5.67676 29.1154 6.96632 28.9653 8.14654 28.4833C9.32677 28.0013 10.3527 27.2057 11.1134 26.1827C11.1944 26.0776 11.2538 25.9575 11.288 25.8293C11.3221 25.7011 11.3305 25.5674 11.3124 25.4359C11.2944 25.3045 11.2504 25.1779 11.183 25.0636C11.1156 24.9494 11.0261 24.8496 10.9198 24.7703C10.8135 24.6909 10.6924 24.6335 10.5636 24.6014C10.4349 24.5693 10.3011 24.5632 10.1699 24.5833C10.0388 24.6034 9.91296 24.6495 9.79978 24.7187C9.6866 24.788 9.58834 24.8791 9.51072 24.9867C9.04574 25.612 8.44081 26.1198 7.74437 26.4694C7.04793 26.819 6.27932 27.0007 5.50005 27C5.50005 25.36 6.28938 23.9027 7.51338 22.9893Z" fill="#5E44FF"/>
</svg>
